<?xml version="1.0" encoding="UTF-8"?>
<!DOCTYPE svg  PUBLIC '-//W3C//DTD SVG 1.1//EN'  'http://www.w3.org/Graphics/SVG/1.1/DTD/svg11.dtd'>
<svg clip-rule="evenodd" fill-rule="evenodd" image-rendering="optimizeQuality" shape-rendering="geometricPrecision" text-rendering="geometricPrecision" version="1.1" viewBox="0 0 150 150" xmlns="http://www.w3.org/2000/svg">
<path d="m81.5 2.5c2.4365 3.5118 5.1032 3.5118 8 0 2.6667-1.3333 5.3333-1.3333 8 0 3.597 2.2563 6.931 4.9229 10 8 1.562 3.8918 3.895 7.2251 7 10 0.935 2.3614 2.268 4.5281 4 6.5 6.693 2.0262 11.026 6.3596 13 13 3.22 2.4367 6.553 4.6033 10 6.5-0.073 1.5269 0.594 2.5269 2 3 0.707 3.2861 1.04 6.6194 1 10-0.767 0.672-1.434 1.5053-2 2.5 5.278 5.066 7.278 11.233 6 18.5-1.47 1.6513-2.803 3.4847-4 5.5-8.757 5.6999-17.091 11.866-25 18.5-6.03 1.7-9.03 5.7-9 12-1.777 3.005-2.777 6.338-3 10-1.431 1.28-2.098 2.947-2 5-4.686 5.506-10.686 8.006-18 7.5-0.7524 0.671-1.0858 1.504-1 2.5-2.0398 1.677-4.0398 3.344-6 5h-11c-1.3333-1.433-2.8333-2.767-4.5-4-5.7435 3.698-11.577 3.865-17.5 0.5-5.9112-6.743-11.245-13.91-16-21.5-1.8043-1.268-3.8043-1.935-6-2-3.4816-2.984-5.9816-6.651-7.5-11-6.1031-3.267-10.603-7.934-13.5-14 0.04807-2.8128 0.71473-5.4795 2-8-1.1125-1.9192-2.4458-3.5858-4-5-2.8221-5.7492-2.6554-11.416 0.5-17 10.886-8.5531 22.053-16.72 33.5-24.5 1.3672-2.3015 2.0339-4.8015 2-7.5 2.0989-4.7862 3.9322-9.7862 5.5-15 4.0545-6.2529 9.8878-9.0863 17.5-8.5 4.9202-7.2816 11.587-9.4482 20-6.5z" fill="#fafbfb"/>
<path d="m81.5 2.5c2.6367 1.1303 5.3033 1.1303 8 0-2.8968 3.5118-5.5635 3.5118-8 0z" fill="#070707" opacity=".041"/>
<path d="m97.5 2.5c4.82 0.82098 8.153 3.4876 10 8-3.069-3.0771-6.403-5.7437-10-8z" fill="#131313" opacity=".049"/>
<path d="m70.5 8.5c3.1492-0.28862 6.1492 0.21138 9 1.5 5.3333 4 10.667 8 16 12-9.8287-2.0432-19.495-4.8766-29-8.5 1.3569-1.6856 2.6902-3.3523 4-5z" fill="#97dada"/>
<path d="m90.5 9.5c3.2935-0.24097 6.2935 0.5924 9 2.5 3.333 4.6667 6.667 9.3333 10 14-1 0.6667-2 0.6667-3 0-6.372-4.8447-12.705-9.6781-19-14.5 1.1016-0.6757 2.1016-1.3423 3-2z" fill="#daf0ed"/>
<path d="m72.5-0.5h3c2.1287 0.70278 4.1287 1.7028 6 3-8.4131-2.9482-15.08-0.78156-20 6.5-7.6122-0.58626-13.446 2.2471-17.5 8.5-1.5678 5.2138-3.4011 10.214-5.5 15 0.8511-4.7249 2.0178-9.3916 3.5-14 3.6947-7.6665 9.8614-11.166 18.5-10.5 3.0982-4.2888 7.0982-7.1221 12-8.5z" fill="#0c0c0c" opacity=".042"/>
<path d="m107.5 10.5c3.105 2.7749 5.438 6.1082 7 10-3.105-2.7749-5.438-6.1082-7-10z" fill="#111" opacity=".038"/>
<path d="m54.5 16.5c2.6873-0.1641 5.354 0.0026 8 0.5 19.438 5.6923 38.771 11.692 58 18 3.759 3.7434 4.926 8.2434 3.5 13.5-7.937 26.478-16.271 52.811-25 79-4.8411 3.404-10.008 3.904-15.5 1.5-18.812-5.604-37.479-11.604-56-18-2.68-3.423-3.5134-7.256-2.5-11.5 7.69-26.093 15.69-52.093 24-78 1.7297-1.9019 3.563-3.5686 5.5-5z" fill="#027ea5"/>
<path d="m114.5 20.5c2 1.476 3.667 3.3094 5 5.5 6.526 1.8597 10.693 6.0264 12.5 12.5 3.516 2.3284 6.682 4.9951 9.5 8-3.447-1.8967-6.78-4.0633-10-6.5-1.974-6.6404-6.307-10.974-13-13-1.732-1.9719-3.065-4.1386-4-6.5z" fill="#131313" opacity=".026"/>
<path d="m128.5 45.5c5.953 2.4266 8.786 6.76 8.5 13-6.176 9.6855-12.843 19.019-20 28 3.096-13.8 6.93-27.467 11.5-41z" fill="#1ba7a6"/>
<path d="m36.5 46.5c1.025 0.3966 1.1917 1.0632 0.5 2-8.0543 10.388-15.721 21.054-23 32-0.7175 0.9506-1.5509 1.1172-2.5 0.5-3.7865-4.007-4.6199-8.507-2.5-13.5 9.043-7.2158 18.21-14.216 27.5-21z" fill="#b8e4e2"/>
<path d="m141.5 46.5c1.406 0.4731 2.073 1.4731 2 3-1.406-0.4731-2.073-1.4731-2-3z" fill="#050505" opacity=".041"/>
<path d="m143.5 49.5c1.472 1.6175 2.139 3.6175 2 6-0.011 1.5451-0.344 2.8784-1 4 0.04-3.3806-0.293-6.7139-1-10z" opacity=".022"/>
<path d="m32.5 59.5c0.5431 0.06 0.8764 0.3933 1 1-4.6117 13.167-8.6117 26.5-12 40-7.6407-1.5989-10.474-6.2656-8.5-14 6.5094-9.0294 13.009-18.029 19.5-27z" fill="#9bdbdb"/>
<path d="m136.5 64.5c5.055 4.3892 6.222 9.7226 3.5 16-8.569 6.7012-17.402 13.034-26.5 19-1.021-0.5016-1.188-1.1683-0.5-2 8.343-10.707 16.177-21.707 23.5-33z" fill="#b1e2e0"/>
<path d="m38.5 32.5c0.0339 2.6985-0.6328 5.1985-2 7.5-11.447 7.7802-22.614 15.947-33.5 24.5-3.1554 5.5841-3.3221 11.251-0.5 17-1.3571-1.0903-2.3571-2.4236-3-4v-9c1.2818-3.8044 3.6151-6.971 7-9.5 9.8407-6.4199 19.507-13.086 29-20 0.9217-2.294 1.9217-4.4606 3-6.5z" fill="#070707" opacity=".035"/>
<path d="m144.5 59.5c0.82 3.8022 2.486 7.1355 5 10v11h-1c1.278-7.2673-0.722-13.434-6-18.5 0.566-0.9947 1.233-1.828 2-2.5z" fill="#010101" opacity=".068"/>
<path d="m95.5 59.5c6.373-0.1323 8.873 2.8677 7.5 9-9.8333 7.8333-19.667 15.667-29.5 23.5-2.3991 0.711-4.7324 0.5443-7-0.5-5.3559-6.1882-10.522-12.522-15.5-19-1.3286-6.3342 1.1714-9.1675 7.5-8.5 4.2258 4.9686 8.5591 9.8019 13 14.5 8.0694-6.3528 16.069-12.686 24-19z" fill="#f1f2f3"/>
<path d="m2.5 81.5c1.5542 1.4142 2.8875 3.0808 4 5-1.2853 2.5205-1.9519 5.1872-2 8-1.1303-2.1684-1.1303-4.5017 0-7-0.67761-2.016-1.3443-4.016-2-6z" fill="#080808" opacity=".053"/>
<path d="m148.5 80.5c-0.281 2.4628-1.281 4.6295-3 6.5-8.551 6.1013-17.218 11.935-26 17.5 7.909-6.6335 16.243-12.8 25-18.5 1.197-2.0153 2.53-3.8487 4-5.5z" fill="#0b0b0b" opacity=".025"/>
<path d="m119.5 104.5c-1.998 2.1-4.165 4.1-6.5 6-0.566 2.223-1.4 4.223-2.5 6-0.03-6.3 2.97-10.3 9-12z" fill="#030303" opacity=".035"/>
<path d="m4.5 94.5c2.8969 6.066 7.3969 10.733 13.5 14 1.5184 4.349 4.0184 8.016 7.5 11-4.5765-2.081-7.5765-5.581-9-10.5-3.9578-2.234-7.4578-5.067-10.5-8.5-1.128-1.8453-1.628-3.8453-1.5-6z" fill="#0c0c0c" opacity=".048"/>
<path d="m110.5 116.5c-0.223 3.662-1.223 6.995-3 10 0.223-3.662 1.223-6.995 3-10z" fill="#080808" opacity=".053"/>
<path d="m39.5 119.5c7.9833 4.661 15.65 9.828 23 15.5-3.4304 2.772-7.0971 3.106-11 1-4.8752-4.939-8.8752-10.439-12-16.5z" fill="#94d8d6"/>
<path d="m53.5 125.5c0.2352-0.597 0.7352-0.93 1.5-1 9.5229 2.756 19.023 5.589 28.5 8.5-2.6203 4.949-6.6203 6.616-12 5-5.8546-4.423-11.855-8.59-18-12.5z" fill="#1ea8a7"/>
<path d="m107.5 126.5c0.38 2.198-0.287 3.865-2 5-0.098-2.053 0.569-3.72 2-5z" fill="#0d0d0d" opacity=".046"/>
<path d="m105.5 131.5c-0.703 2.216-2.036 4.049-4 5.5-5.0308 1.674-10.031 3.174-15 4.5-0.0858-0.996 0.2476-1.829 1-2.5 7.3137 0.506 13.314-1.994 18-7.5z" fill="#040404" opacity=".067"/>
<path d="m86.5 141.5c-0.7678 3.062-2.7678 4.728-6 5 1.9602-1.656 3.9602-3.323 6-5z" fill="#0d0d0d" opacity=".043"/>
<path d="m25.5 119.5c2.1957 0.065 4.1957 0.732 6 2 4.7554 7.59 10.089 14.757 16 21.5 5.9232 3.365 11.756 3.198 17.5-0.5 1.6667 1.233 3.1667 2.567 4.5 4-1.758-0.377-3.4246-1.044-5-2-6.1064 2.821-12.106 2.655-18-0.5-5.9112-6.743-11.245-13.91-16-21.5-1.8596-0.825-3.5262-1.825-5-3z" fill="#080808" opacity=".051"/>
<path d="m69.5 146.5h11c-3.6667 2.667-7.3333 2.667-11 0z" fill="#121212" opacity=".213"/>
</svg>
